HIERARCHY
ROOT hip
{
  OFFSET 0 0 0
  CHANNELS 6 Xposition Yposition Zposition Zrotation Yrotation Xrotation
  JOINT abdomen
  {
    OFFSET 0 20.6881 -0.73152
    CHANNELS 3 Zrotation Xrotation Yrotation
    JOINT chest
    {
      OFFSET 0 11.7043 -0.48768
      CHANNELS 3 Zrotation Xrotation Yrotation
      JOINT neck
      {
        OFFSET 0 22.1894 -2.19456
        CHANNELS 3 Zrotation Xrotation Yrotation
        JOINT head
        {
          OFFSET -0.24384 7.07133 1.2192
          CHANNELS 3 Zrotation Xrotation Yrotation
          JOINT leftEye
          {
            OFFSET 4.14528 8.04674 8.04672
            CHANNELS 3 Zrotation Xrotation Yrotation
            End Site
            {
              OFFSET 1 0 0
            }
          }
          JOINT rightEye
          {
            OFFSET -3.6576 8.04674 8.04672
            CHANNELS 3 Zrotation Xrotation Yrotation
            End Site
            {
              OFFSET 1 0 0
            }
          }
        }
      }
      JOINT rCollar
      {
        OFFSET -2.68224 19.2634 -4.8768
        CHANNELS 3 Zrotation Xrotation Yrotation
        JOINT rShldr
        {
          OFFSET -8.77824 -1.95073 1.46304
          CHANNELS 3 Zrotation Xrotation Yrotation
          JOINT rForeArm
          {
            OFFSET -28.1742 -1.7115 0.48768
            CHANNELS 3 Zrotation Xrotation Yrotation
            JOINT rHand
            {
              OFFSET -22.5879 0.773209 7.07136
              CHANNELS 3 Zrotation Xrotation Yrotation
              JOINT rThumb1
              {
                OFFSET -1.2192 -0.487915 3.41376
                CHANNELS 3 Zrotation Xrotation Yrotation
                JOINT rThumb2
                {
                  OFFSET -3.37035 -0.52449 3.41376
                  CHANNELS 3 Zrotation Xrotation Yrotation
                  End Site
                  {
                    OFFSET -1.78271 -1.18214 1.43049
                  }
                }
              }
              JOINT rIndex1
              {
                OFFSET -7.75947 0.938293 5.60832
                CHANNELS 3 Zrotation Xrotation Yrotation
                JOINT rIndex2
                {
                  OFFSET -2.54057 -0.884171 1.56538
                  CHANNELS 3 Zrotation Xrotation Yrotation
                  End Site
                  {
                    OFFSET -1.62519 -0.234802 1.16502
                  }
                }
              }
              JOINT rMid1
              {
                OFFSET -8.24714 1.18213 3.41376
                CHANNELS 3 Zrotation Xrotation Yrotation
                JOINT rMid2
                {
                  OFFSET -3.10165 -0.590103 1.0647
                  CHANNELS 3 Zrotation Xrotation Yrotation
                  End Site
                  {
                    OFFSET -2.48547 -0.328903 0.83742
                  }
                }
              }
              JOINT rRing1
              {
                OFFSET -8.82822 0.546677 1.51678
                CHANNELS 3 Zrotation Xrotation Yrotation
                JOINT rRing2
                {
                  OFFSET -2.60934 -0.819778 -0.0198488
                  CHANNELS 3 Zrotation Xrotation Yrotation
                  End Site
                  {
                    OFFSET -2.33842 -0.294052 0.168128
                  }
                }
              }
              JOINT rPinky1
              {
                OFFSET -8.27202 -0.0477905 -0.4584
                CHANNELS 3 Zrotation Xrotation Yrotation
                JOINT rPinky2
                {
                  OFFSET -1.82734 -0.647385 -0.700984
                  CHANNELS 3 Zrotation Xrotation Yrotation
                  End Site
                  {
                    OFFSET -1.69225 -0.51767 -0.607171
                  }
                }
              }
            }
          }
        }
      }
      JOINT lCollar
      {
        OFFSET 2.68224 19.2634 -4.8768
        CHANNELS 3 Zrotation Xrotation Yrotation
        JOINT lShldr
        {
          OFFSET 8.77824 -1.95073 1.46304
          CHANNELS 3 Zrotation Xrotation Yrotation
          JOINT lForeArm
          {
            OFFSET 28.1742 -1.7115 0.48768
            CHANNELS 3 Zrotation Xrotation Yrotation
            JOINT lHand
            {
              OFFSET 22.5879 0.773209 7.07136
              CHANNELS 3 Zrotation Xrotation Yrotation
              JOINT lThumb1
              {
                OFFSET 1.2192 -0.487915 3.41376
                CHANNELS 3 Zrotation Xrotation Yrotation
                JOINT lThumb2
                {
                  OFFSET 3.37035 -0.52449 3.41376
                  CHANNELS 3 Zrotation Xrotation Yrotation
                  End Site
                  {
                    OFFSET 1.78271 -1.18214 1.43049
                  }
                }
              }
              JOINT lIndex1
              {
                OFFSET 7.75947 0.938293 5.60832
                CHANNELS 3 Zrotation Xrotation Yrotation
                JOINT lIndex2
                {
                  OFFSET 2.54057 -0.884171 1.56538
                  CHANNELS 3 Zrotation Xrotation Yrotation
                  End Site
                  {
                    OFFSET 1.62519 -0.234802 1.16502
                  }
                }
              }
              JOINT lMid1
              {
                OFFSET 8.24714 1.18213 3.41376
                CHANNELS 3 Zrotation Xrotation Yrotation
                JOINT lMid2
                {
                  OFFSET 3.10165 -0.590103 1.0647
                  CHANNELS 3 Zrotation Xrotation Yrotation
                  End Site
                  {
                    OFFSET 2.48547 -0.328903 0.83742
                  }
                }
              }
              JOINT lRing1
              {
                OFFSET 8.82822 0.546677 1.51678
                CHANNELS 3 Zrotation Xrotation Yrotation
                JOINT lRing2
                {
                  OFFSET 2.60934 -0.819778 -0.0198488
                  CHANNELS 3 Zrotation Xrotation Yrotation
                  End Site
                  {
                    OFFSET 2.33842 -0.294052 0.168128
                  }
                }
              }
              JOINT lPinky1
              {
                OFFSET 8.27202 -0.0477905 -0.4584
                CHANNELS 3 Zrotation Xrotation Yrotation
                JOINT lPinky2
                {
                  OFFSET 1.82734 -0.647385 -0.700984
                  CHANNELS 3 Zrotation Xrotation Yrotation
                  End Site
                  {
                    OFFSET 1.69225 -0.51767 -0.607171
                  }
                }
              }
            }
          }
        }
      }
    }
  }
  JOINT rButtock
  {
    OFFSET -8.77824 4.35084 1.2192
    CHANNELS 3 Zrotation Xrotation Yrotation
    JOINT rThigh
    {
      OFFSET 0 -1.70687 -2.19456
      CHANNELS 3 Zrotation Xrotation Yrotation
      JOINT rShin
      {
        OFFSET 0 -36.8199 0.73152
        CHANNELS 3 Zrotation Xrotation Yrotation
        JOINT rFoot
        {
          OFFSET 0.73152 -45.1104 -5.12064
          CHANNELS 3 Zrotation Xrotation Yrotation
          End Site
          {
            OFFSET -1.1221 -3.69964 12.103
          }
        }
      }
    }
  }
  JOINT lButtock
  {
    OFFSET 8.77824 4.35084 1.2192
    CHANNELS 3 Zrotation Xrotation Yrotation
    JOINT lThigh
    {
      OFFSET 0 -1.70687 -2.19456
      CHANNELS 3 Zrotation Xrotation Yrotation
      JOINT lShin
      {
        OFFSET 0 -36.8199 0.73152
        CHANNELS 3 Zrotation Xrotation Yrotation
        JOINT lFoot
        {
          OFFSET -0.73152 -45.1104 -5.12064
          CHANNELS 3 Zrotation Xrotation Yrotation
          End Site
          {
            OFFSET 1.1221 -3.69964 12.103
          }
        }
      }
    }
  }
}
MOTION
Frames:	4
Frame Time:	0.00833333
53.8058 85.5269 255.703 0.0 0.0 0.0 2.34101 -0.00222416 0.0637214 0.646596 0.00594987 0.111938 8.36531e-14 0.0 -1.49088e-16 2.51214e-13 3.18055e-15 -6.24308e-16 -0.0 0.0 0.0 -0.0 0.0 0.0 4.19928e-14 -8.83272e-17 4.96962e-17 8.85257e-13 -1.84497e-15 2.18663e-15 1.52353e-11 -4.60206e-12 -1.78111e-13 1.74042e-10 4.22507e-12 -4.77083e-14 4.10601e-10 -8.17563e-13 -5.1843e-13 7.09076e-10 -1.41535e-12 -9.12819e-13 4.10607e-10 -8.17403e-13 -5.31153e-13 7.73091 5.47488 0.417314 4.10601e-10 -8.17601e-13 -5.1843e-13 2.90554 0.965183 0.102902 4.10609e-10 -8.17701e-13 -5.21611e-13 10.2786 0.731801 0.0259123 4.10596e-10 -8.15812e-13 -5.1843e-13 2.22167 -0.733487 -0.20892 4.19965e-14 -8.52212e-17 -1.49089e-16 8.79681e-13 -1.93815e-15 3.97569e-16 1.5177e-11 4.49571e-12 -1.49486e-13 1.74048e-10 -4.88516e-12 -7.31528e-14 4.10505e-10 -8.44116e-13 -5.27972e-13 7.08943e-10 -1.45987e-12 -9.18385e-13 4.10502e-10 -8.44835e-13 -5.24792e-13 -7.73091 5.47488 -0.417314 4.10506e-10 -8.44636e-13 -5.27972e-13 -2.90554 0.965183 -0.102902 4.105e-10 -8.4404e-13 -5.25587e-13 -10.2786 0.731801 -0.0259123 4.10509e-10 -8.41257e-13 -5.31153e-13 -2.22167 -0.733487 0.20892 -2.03217e-16 0.0 -3.88251e-19 2.21552 -8.02973 -0.231362 0.00607148 8.97368 0.15207 -0.477728 -0.951454 0.0348681 2.03217e-16 0.0 3.88251e-19 1.3521 -1.92788 -0.0053586 0.00846627 -2.07867 0.0694574 0.423822 3.99897 -0.127284
53.4504 84.135 243.863 -179.321 -12.9108 -179.976 3.10407 0.370136 1.72062 0.29862 -1.75667 0.58216 1.99081 3.84881 4.61187 -2.81053 -5.38291 8.62075 -0.0 0.0 0.0 -0.0 0.0 0.0 4.83863e-14 -2.01357e-14 -2.2756e-13 22.2221 13.5485 -2.67182 -4.77463 -2.29264 7.31902 0.0460888 4.76514 0.661358 4.86064e-10 -1.28941e-10 -1.97283e-10 8.37737e-10 -2.20554e-10 -3.42931e-10 4.86069e-10 -1.28941e-10 -1.97293e-10 7.73091 5.47488 0.417314 4.86065e-10 -1.28943e-10 -1.97279e-10 2.90554 0.965183 0.102902 4.86071e-10 -1.28941e-10 -1.97283e-10 10.2786 0.731801 0.0259123 4.8606e-10 -1.2894e-10 -1.97278e-10 2.22167 -0.733487 -0.20892 4.83842e-14 -2.01325e-14 -2.27775e-13 -22.2364 10.1556 1.45374 5.57908 -2.88099 -8.30543 -0.0270078 3.64792 -0.508938 5.90808e-10 6.42829e-10 -6.20936e-11 1.01941e-09 1.10923e-09 -1.10129e-10 5.90803e-10 6.42829e-10 -6.20848e-11 -7.73091 5.47488 -0.417314 5.90809e-10 6.42829e-10 -6.20936e-11 -2.90554 0.965183 -0.102902 5.90802e-10 6.42829e-10 -6.20925e-11 -10.2786 0.731801 -0.0259123 5.90812e-10 6.42831e-10 -6.21003e-11 -2.22167 -0.733487 0.20892 -2.03217e-16 0.0 -3.88251e-19 5.1952 -8.85505 3.90993 0.0612836 14.7897 0.344252 -2.88083 -8.4545 -10.8056 2.03217e-16 0.0 3.88251e-19 0.301908 -5.12434 -6.38323 -0.0261587 6.43277 -0.113484 0.774842 -2.44182 2.67546
53.4751 84.1386 243.853 -179.22 -12.8992 -180.014 3.89027 0.761282 3.47269 -0.0395953 -3.61921 1.08081 3.42035 7.83355 9.55603 -4.02092 -10.6597 17.9767 -0.0 0.0 0.0 -0.0 0.0 0.0 5.617e-14 -4.16355e-14 -4.77037e-13 47.25 27.7695 -6.04196 -9.19054 -4.59144 15.0933 -0.0264094 9.80075 1.37593 5.85946e-10 -2.72907e-10 -4.10069e-10 1.00848e-09 -4.66627e-10 -7.13028e-10 5.8595e-10 -2.72908e-10 -4.10077e-10 7.73091 5.47488 0.417314 5.85948e-10 -2.72912e-10 -4.10061e-10 2.90554 0.965183 0.102902 5.85952e-10 -2.72908e-10 -4.10065e-10 10.2786 0.731801 0.0259123 5.85943e-10 -2.72908e-10 -4.1006e-10 2.22167 -0.733487 -0.20892 5.61625e-14 -4.1632e-14 -4.7727e-13 -46.3385 20.8706 3.1503 10.5805 -5.72658 -17.155 0.0154266 7.49255 -1.05235 7.86175e-10 1.34437e-09 -1.24714e-10 1.35584e-09 2.31985e-09 -2.21318e-10 7.86168e-10 1.34437e-09 -1.24699e-10 -7.73091 5.47488 -0.417314 7.86177e-10 1.34437e-09 -1.24715e-10 -2.90554 0.965183 -0.102902 7.86169e-10 1.34437e-09 -1.24715e-10 -10.2786 0.731801 -0.0259123 7.86179e-10 1.34437e-09 -1.24725e-10 -2.22167 -0.733487 0.20892 -2.03217e-16 0.0 -3.88251e-19 8.4784 -9.66926 8.3088 0.0741015 20.9372 0.56305 -8.5307 -15.4418 -22.897 2.03217e-16 0.0 3.88251e-19 -1.57939 -8.34731 -13.2103 -0.00195643 15.4322 -0.31678 1.83578 -9.21069 5.70191
53.4908 84.1357 243.862 -179.168 -12.8982 -179.971 4.56566 1.11105 5.03527 -0.310218 -5.28032 1.52827 4.10309 11.2448 14.0801 -3.62174 -14.6721 26.6825 -0.0 0.0 0.0 -0.0 0.0 0.0 6.11733e-14 -6.02306e-14 -6.82779e-13 71.4362 40.2348 -10.2301 -12.6053 -6.42996 22.0855 -0.200646 14.2877 2.04035 6.36992e-10 -3.85187e-10 -5.90812e-10 1.09506e-09 -6.58831e-10 -1.02697e-09 6.36994e-10 -3.85188e-10 -5.90817e-10 7.73091 5.47488 0.417314 6.36994e-10 -3.85193e-10 -5.908e-10 2.90554 0.965183 0.102902 6.36995e-10 -3.85188e-10 -5.90805e-10 10.2786 0.731801 0.0259123 6.36989e-10 -3.85188e-10 -5.90798e-10 2.22167 -0.733487 -0.20892 6.11598e-14 -6.02272e-14 -6.83026e-13 -68.4625 30.3818 4.97787 14.2994 -7.91803 -25.1407 0.116434 10.9403 -1.55193 9.51415e-10 1.93018e-09 -1.85225e-10 1.64034e-09 3.33062e-09 -3.28549e-10 9.51406e-10 1.93018e-09 -1.85205e-10 -7.73091 5.47488 -0.417314 9.51416e-10 1.93018e-09 -1.85225e-10 -2.90554 0.965183 -0.102902 9.51407e-10 1.93018e-09 -1.85226e-10 -10.2786 0.731801 -0.0259123 9.51418e-10 1.93018e-09 -1.85239e-10 -2.22167 -0.733487 0.20892 -2.03217e-16 0.0 -3.88251e-19 11.5113 -10.3312 12.2496 0.0410241 26.4204 0.77955 -16.1323 -20.0749 -34.4887 2.03217e-16 0.0 3.88251e-19 -3.92103 -10.9677 -19.4309 0.078508 23.4548 -0.520108 3.41151 -15.168 8.57387
